<?xml version="1.0" encoding="utf-8"?>
<!-- Generator: Adobe Illustrator 21.1.0, SVG Export Plug-In . SVG Version: 6.00 Build 0)  -->
<svg version="1.1" xmlns="http://www.w3.org/2000/svg" xmlns:xlink="http://www.w3.org/1999/xlink" x="0px" y="0px"
	 viewBox="0 0 195 195" style="enable-background:new 0 0 195 195;" xml:space="preserve">
<style type="text/css">
	.st0{fill:#DE2910;}
	.st1{fill:#FFDC00;}
	.st2{display:none;}
	.st3{display:inline;}
	.st4{fill:#FFFFFF;}
	.st5{fill:#000068;}
	.st6{fill:#CC0000;}
</style>
<g id="Layer_1">
	<circle class="st0" cx="97.5" cy="97.5" r="97.5"/>
	<path class="st1" d="M170.2,68l-7.5,4.2l-6.3-5.9l1.7,8.5l-7.5,4.2l8.6,1l1.7,8.5l3.6-7.8c0,0,0.1,0,0.3,0c1.4,0.2,8.3,1,8.3,1
		l-6.3-5.9L170.2,68z"/>
	<path class="st1" d="M146.4,49.6l-8.1-2.9l0.2-8.6l-5.3,6.8l-8.1-2.9l4.9,7.1l-5.3,6.8l8.3-2.4c0,0,0.1,0.1,0.1,0.2
		c0.8,1.2,4.7,6.9,4.7,6.9l0.2-8.6L146.4,49.6z"/>
	<path class="st1" d="M174.6,115.2l-8.6,0.1l-2.7-8.2l-2.6,8.2l-8.6,0.1l7,5l-2.6,8.2l6.9-5.1c0,0,0.1,0.1,0.2,0.1
		c1.2,0.8,6.8,4.9,6.8,4.9l-2.7-8.2L174.6,115.2z"/>
	<path class="st1" d="M147.4,148.4l-8.1-3.1l0.4-8.6l-5.4,6.7l-8.1-3.1l4.7,7.2l-5.4,6.7l8.3-2.3c0,0,0.1,0.1,0.1,0.2
		c0.8,1.2,4.6,7,4.6,7l0.4-8.6L147.4,148.4z"/>
	<polygon class="st1" points="64.5,51 73.6,79 103,79 79.2,96.3 88.3,124.2 64.5,107 40.7,124.2 49.8,96.3 26,79 55.4,79 	"/>
</g>
<g id="Layer_2">
</g>
<g id="Layer_2_copy" class="st2">
	<g class="st3">
		<path class="st4" d="M193.7,77.4c-0.1-0.3-0.1-0.6-0.2-0.9c-0.9-4.1-2.1-8.1-3.6-12c-0.2-0.6-0.5-1.3-0.7-1.9
			c-0.8-2-1.6-4-2.5-5.9c-0.9-1.9-1.9-3.8-2.9-5.6c-1-1.8-2.1-3.7-3.3-5.4c-1.1-1.8-2.4-3.5-3.6-5.2c-1.3-1.7-2.6-3.4-4-5
			c-1.4-1.6-2.8-3.2-4.3-4.8c-12-12.4-27.2-21.6-44.3-26.4c-0.1,0-0.2-0.1-0.3-0.1c-3.3-0.9-6.8-1.7-10.2-2.2c0,0-0.1,0-0.1,0
			c-5.2-0.8-10.5-1.3-16-1.3c-5.5,0-10.9,0.5-16.1,1.3c0,0,0,0,0,0c-3.5,0.6-7,1.3-10.4,2.3c0,0-0.1,0-0.1,0
			C53.9,9,38.7,18.3,26.8,30.7c-1.5,1.5-2.9,3.1-4.3,4.8c-1.4,1.6-2.7,3.3-4,5c-1.3,1.7-2.5,3.4-3.6,5.2c-1.1,1.8-2.2,3.6-3.3,5.4
			c-1,1.8-2,3.7-2.9,5.6c-0.9,1.9-1.8,3.9-2.5,5.9c-0.2,0.6-0.5,1.3-0.7,1.9c-1.4,3.9-2.6,7.9-3.6,12c-0.1,0.3-0.1,0.6-0.2,0.9
			c-1.4,6.6-2.2,13.4-2.2,20.4c0,6.4,0.6,12.7,1.8,18.7c0,0.2,0.1,0.3,0.1,0.5c0.9,4.4,2.1,8.7,3.6,12.9c0,0.1,0.1,0.2,0.1,0.3
			c0.3,0.8,0.6,1.5,0.8,2.3c0.8,2,1.6,4,2.5,5.9c0.9,1.9,1.8,3.8,2.9,5.7c1,1.9,2.1,3.7,3.2,5.5c1.1,1.8,2.3,3.5,3.6,5.2
			c1.3,1.7,2.6,3.4,3.9,5c1.4,1.6,2.8,3.2,4.3,4.8c12,12.6,27.4,22,44.7,26.8c0,0,0.1,0,0.1,0c3.4,0.9,6.8,1.7,10.4,2.3c0,0,0,0,0,0
			c5.2,0.9,10.6,1.3,16.1,1.3c5.5,0,10.8-0.5,16.1-1.3c0,0,0.1,0,0.1,0c3.5-0.6,7-1.3,10.4-2.3c0,0,0.1,0,0.1,0
			c17.3-4.8,32.7-14.2,44.7-26.8c1.5-1.5,2.9-3.1,4.3-4.8c1.4-1.6,2.7-3.3,3.9-5c1.2-1.7,2.4-3.4,3.6-5.2c1.1-1.8,2.2-3.6,3.2-5.5
			c1-1.9,2-3.7,2.9-5.7c0.9-1.9,1.7-3.9,2.5-5.9c0.3-0.8,0.6-1.5,0.8-2.3c0-0.1,0.1-0.2,0.1-0.3c1.5-4.2,2.7-8.5,3.6-12.9
			c0-0.2,0.1-0.3,0.1-0.5c1.2-6.1,1.8-12.3,1.8-18.7C195.9,90.8,195.1,83.9,193.7,77.4z"/>
		<g>
			<g>
				<path class="st5" d="M71.1,191.3v-54.8l-44.7,28C38.4,177.1,53.7,186.5,71.1,191.3z"/>
				<path class="st5" d="M124.4,4.3v54.1l44.3-27.7C156.7,18.3,141.5,9,124.4,4.3z"/>
				<path class="st5" d="M5.2,130.2c0.3,0.8,0.6,1.5,0.8,2.3c0.8,2,1.6,4,2.5,5.9l13.1-8.2H9.6H5.2z"/>
				<path class="st5" d="M189.2,62.6c-0.8-2-1.6-4-2.5-5.9l-12.4,7.8h11.9h3.7C189.7,63.8,189.5,63.2,189.2,62.6z"/>
				<path class="st5" d="M124.4,191.3c17.3-4.8,32.7-14.2,44.7-26.8l-44.7-28V191.3z"/>
				<path class="st5" d="M26.8,30.7l44.3,27.7V4.3C53.9,9,38.7,18.3,26.8,30.7z"/>
			</g>
			<g>
				<path class="st6" d="M193.7,77.4c-0.1-0.3-0.1-0.6-0.2-0.9h-79.7v-1.6V64.5h-0.1V1.9c-5.2-0.8-10.5-1.3-16-1.3
					c-5.5,0-10.9,0.5-16.1,1.3v62.5v12H1.9c0,0,0,0,0,0c-1.5,6.9-2.4,14-2.4,21.3c0,6.4,0.6,12.7,1.8,18.7c0,0.2,0.1,0.3,0.1,0.5
					h80.1v12.9v63.8c5.2,0.9,10.6,1.3,16.1,1.3c5.5,0,10.8-0.5,16.1-1.3v-63.8V117h80.1c0-0.2,0.1-0.3,0.1-0.5
					c1.2-6.1,1.8-12.3,1.8-18.7C195.9,90.8,195.1,83.9,193.7,77.4z"/>
				<path class="st6" d="M45.4,130.2l-30.8,19.3c1.1,1.8,2.3,3.5,3.6,5.2c1.3,1.7,2.6,3.4,3.9,5l47.2-29.5H57.4H45.4z"/>
				<path class="st6" d="M150.4,64.5l30.1-18.8c-1.1-1.8-2.4-3.5-3.6-5.2c-1.3-1.7-2.6-3.4-4-5l-46.4,29h11.9H150.4z"/>
				<path class="st6" d="M161.9,130.2H150l30.8,19.3c1.1-1.8,2.2-3.6,3.2-5.5c1-1.9,2-3.7,2.9-5.7l-13.1-8.2H161.9z"/>
				<path class="st6" d="M33.1,64.5H45L14.9,45.6c-1.1,1.8-2.2,3.6-3.3,5.4c-1,1.8-2,3.7-2.9,5.6l12.4,7.8H33.1z"/>
			</g>
			<g>
				<path class="st4" d="M189.9,64.5h-3.7h-11.9l12.4-7.8c-0.9-1.9-1.9-3.8-2.9-5.6c-1-1.8-2.1-3.7-3.3-5.4l-30.1,18.8h-11.9h-11.9
					l46.4-29c-1.4-1.6-2.8-3.2-4.3-4.8l-44.3,27.7V4.3c-0.1,0-0.2-0.1-0.3-0.1c-3.3-0.9-6.8-1.7-10.2-2.2v62.5v10.4v1.6h79.7
					C192.6,72.4,191.4,68.4,189.9,64.5z"/>
				<path class="st4" d="M5.1,129.9c0,0.1,0.1,0.2,0.1,0.3h4.5h11.9l-13.1,8.2c0.9,1.9,1.8,3.8,2.9,5.7c1,1.9,2.1,3.7,3.2,5.5
					l30.8-19.3h11.9h11.9l-47.2,29.5c1.4,1.6,2.8,3.2,4.3,4.8l44.7-28v54.8c0,0,0.1,0,0.1,0c3.4,0.9,6.8,1.7,10.4,2.3v-63.8h0V117
					H1.5C2.4,121.4,3.6,125.7,5.1,129.9z"/>
				<path class="st4" d="M113.8,117v12.9h0.1v63.8c3.5-0.6,7-1.3,10.4-2.3c0,0,0.1,0,0.1,0v-54.8l44.7,28c1.5-1.5,2.9-3.1,4.3-4.8
					c1.4-1.6,2.7-3.3,3.9-5c1.2-1.7,2.4-3.4,3.6-5.2L150,130.2h11.9h11.9l13.1,8.2c0.9-1.9,1.7-3.9,2.5-5.9c0.3-0.8,0.6-1.5,0.8-2.3
					c0-0.1,0.1-0.2,0.1-0.3c1.5-4.2,2.7-8.5,3.6-12.9H113.8z"/>
				<path class="st4" d="M81.5,2c-3.5,0.6-7,1.3-10.4,2.3c0,0-0.1,0-0.1,0v54.1L26.8,30.7c-1.5,1.5-2.9,3.1-4.3,4.8
					c-1.4,1.6-2.7,3.3-4,5c-1.3,1.7-2.5,3.4-3.6,5.2L45,64.5H33.1H21.2L8.8,56.7c-0.9,1.9-1.8,3.9-2.5,5.9c-0.2,0.6-0.5,1.3-0.7,1.9
					c-1.4,3.9-2.6,7.9-3.6,12h79.6v-12h0V2z"/>
			</g>
		</g>
	</g>
</g>
</svg>
